<?xml version="1.0" encoding="utf-8"?>
<!-- Generator: Adobe Illustrator 16.0.0, SVG Export Plug-In . SVG Version: 6.00 Build 0)  -->
<!DOCTYPE svg PUBLIC "-//W3C//DTD SVG 1.1//EN" "http://www.w3.org/Graphics/SVG/1.1/DTD/svg11.dtd">
<svg version="1.1" id="レイヤー_1" xmlns="http://www.w3.org/2000/svg" xmlns:xlink="http://www.w3.org/1999/xlink" x="0px"
	 y="0px" width="841.89px" height="595.281px" viewBox="0 0 841.89 595.281" enable-background="new 0 0 841.89 595.281"
	 xml:space="preserve">
<path fill="none" stroke="#000000" stroke-linecap="round" stroke-linejoin="round" d="M10.141,158.678c0-44.835,0-89.669,0-134.504
	C10.141,16.346,16.486,10,24.313,10c176.883,0,353.764,0,530.646,0c7.828,0,14.174,6.346,14.174,14.173
	c0,111.968,0,223.938,0,335.905c0,7.826-6.346,14.174-14.174,14.174c-176.881,0-353.764,0-530.646,0
	c-7.827,0-14.173-6.347-14.173-14.174c0-17.625,0-35.25,0-52.877c0-6.527,4.458-12.212,10.799-13.766
	c20.288-4.974,34.556-23.161,34.556-44.05c0-4.725,0-9.449,0-14.174c0-7.828,6.346-14.173,14.173-14.173c25.04,0,50.079,0,75.118,0
	c3.131,0,5.67-2.538,5.67-5.669c0-12.284,0-24.567,0-36.852c0-3.131-2.539-5.668-5.67-5.668c-40.157,0-80.314,0-120.473,0
	C16.486,172.852,10.141,166.506,10.141,158.678z"/>
<path fill="none" stroke="#C80000" stroke-linecap="round" stroke-linejoin="round" d="M330.312,241.023
	c51.022,0,102.048,0,153.072,0c1.762,0,3.525,0.061,5.285,0.18c1.812,0.122,3.621,0.309,5.42,0.558
	c1.84,0.256,3.672,0.578,5.488,0.968c1.844,0.396,3.674,0.861,5.479,1.398c1.82,0.54,3.619,1.153,5.391,1.84
	c1.768,0.686,3.506,1.443,5.207,2.277c1.686,0.826,3.334,1.728,4.938,2.703c1.574,0.959,3.105,1.991,4.582,3.098
	c1.439,1.08,2.824,2.23,4.146,3.451c1.281,1.186,2.506,2.436,3.65,3.752c1.107,1.271,2.146,2.604,3.105,3.992
	c0.922,1.338,1.77,2.727,2.525,4.164c0.73,1.381,1.375,2.805,1.936,4.264c0.535,1.402,0.986,2.837,1.346,4.294
	c0.678,2.751,1.029,5.583,1.029,8.417c0,2.832-0.354,5.665-1.029,8.416c-0.359,1.457-0.811,2.892-1.348,4.294
	c-0.559,1.459-1.203,2.884-1.934,4.265c-0.76,1.438-1.604,2.826-2.525,4.162c-0.957,1.389-1.996,2.721-3.105,3.991
	c-1.145,1.316-2.369,2.568-3.65,3.752c-1.322,1.224-2.707,2.373-4.146,3.453c-1.477,1.104-3.008,2.138-4.582,3.097
	c-1.604,0.979-3.252,1.877-4.938,2.703c-1.701,0.836-3.439,1.594-5.207,2.278c-1.771,0.687-3.568,1.299-5.391,1.84
	c-1.809,0.537-3.637,1.002-5.479,1.396c-1.816,0.392-3.648,0.714-5.488,0.97c-3.545,0.491-7.125,0.735-10.705,0.735
	c-51.023,0-102.048,0-153.072,0c-1.764,0-3.525-0.061-5.284-0.178c-1.812-0.123-3.621-0.309-5.421-0.559
	c-1.842-0.258-3.672-0.578-5.488-0.971c-1.844-0.396-3.673-0.859-5.48-1.396c-1.817-0.539-3.618-1.152-5.389-1.84
	c-1.767-0.686-3.505-1.441-5.207-2.277c-1.685-0.826-3.333-1.727-4.937-2.703c-1.575-0.959-3.105-1.99-4.581-3.098
	c-1.44-1.078-2.826-2.229-4.147-3.451c-1.283-1.186-2.505-2.436-3.652-3.752c-1.108-1.271-2.146-2.604-3.104-3.992
	c-0.923-1.338-1.77-2.727-2.527-4.162c-0.729-1.381-1.376-2.807-1.934-4.266c-0.535-1.401-0.986-2.836-1.346-4.293
	c-0.679-2.751-1.029-5.584-1.029-8.416c0-2.833,0.351-5.666,1.029-8.417c0.359-1.457,0.811-2.892,1.346-4.294
	c0.558-1.459,1.205-2.883,1.934-4.264c0.758-1.438,1.605-2.826,2.527-4.164c0.957-1.389,1.995-2.721,3.104-3.992
	c1.147-1.316,2.369-2.566,3.652-3.752c1.321-1.221,2.707-2.371,4.147-3.451c1.476-1.106,3.006-2.139,4.581-3.098
	c1.604-0.976,3.252-1.877,4.937-2.703c1.702-0.834,3.44-1.592,5.207-2.277c1.771-0.687,3.569-1.3,5.389-1.84
	c1.81-0.537,3.638-1.002,5.48-1.398c1.816-0.39,3.646-0.712,5.488-0.967C323.153,241.269,326.733,241.023,330.312,241.023z
	 M289.92,52.52c-1.565,0-2.835,1.269-2.835,2.835c0,51.496,0,102.993,0,154.488c0,1.565,1.27,2.835,2.835,2.835
	c77.953,0,155.906,0,233.859,0c1.564,0,2.834-1.27,2.834-2.835c0-51.495,0-102.992,0-154.488c0-1.566-1.27-2.835-2.834-2.835
	C445.826,52.52,367.873,52.52,289.92,52.52z M235.778,156.127c1.565,0,2.835-1.27,2.835-2.835c0-30.236,0-60.473,0-90.709
	c0-1.565-1.27-2.834-2.835-2.834c-53.386,0-106.771,0-160.157,0c-1.565,0-2.835,1.269-2.835,2.834c0,30.236,0,60.473,0,90.709
	c0,1.565,1.27,2.835,2.835,2.835C129.007,156.127,182.393,156.127,235.778,156.127z M24.313,28.993c2.662,0,4.819-2.158,4.819-4.819
	c0-2.662-2.157-4.819-4.819-4.819c-2.661,0-4.818,2.157-4.818,4.819C19.495,26.835,21.652,28.993,24.313,28.993z M19.495,360.08
	c0,2.66,2.157,4.818,4.818,4.818c2.662,0,4.819-2.158,4.819-4.818c0-2.662-2.157-4.82-4.819-4.82
	C21.652,355.259,19.495,357.417,19.495,360.08z M554.96,355.259c-2.662,0-4.82,2.158-4.82,4.82c0,2.66,2.158,4.817,4.82,4.817
	c2.66,0,4.818-2.157,4.818-4.817C559.779,357.417,557.621,355.259,554.96,355.259z M198.929,218.205c0-16.062,0-32.126,0-48.189
	c0-1.564-1.27-2.834-2.836-2.834c-10.393,0-20.787,0-31.181,0c-1.565,0-2.835,1.27-2.835,2.834c0,16.063,0,32.127,0,48.189
	c0,8.418,0.9,16.456,3.385,24.559c1.816,5.924,6.496,17.961,15.041,17.961c8.546,0,13.223-12.031,15.039-17.957
	C198.028,234.664,198.929,226.624,198.929,218.205z M559.779,24.174c0-2.662-2.158-4.819-4.818-4.819
	c-2.662,0-4.82,2.157-4.82,4.819c0,2.661,2.158,4.819,4.82,4.819C557.621,28.993,559.779,26.835,559.779,24.174z M260.156,196.945
	c0-12.524-10.153-22.678-22.677-22.678s-22.678,10.153-22.678,22.678s10.153,22.678,22.678,22.678
	C250.003,219.623,260.156,209.47,260.156,196.945z"/>
</svg>
