<?xml version="1.0" encoding="utf-8"?>
<!-- Generator: Adobe Illustrator 16.0.0, SVG Export Plug-In . SVG Version: 6.00 Build 0)  -->
<!DOCTYPE svg PUBLIC "-//W3C//DTD SVG 1.1//EN" "http://www.w3.org/Graphics/SVG/1.1/DTD/svg11.dtd">
<svg version="1.1" id="レイヤー_1" xmlns="http://www.w3.org/2000/svg" xmlns:xlink="http://www.w3.org/1999/xlink" x="0px"
	 y="0px" width="841.89px" height="595.28px" viewBox="0 0 841.89 595.28" enable-background="new 0 0 841.89 595.28"
	 xml:space="preserve">
<path fill="none" stroke="#000000" stroke-linecap="round" stroke-linejoin="round" d="M571.732,445.118
	c0,7.827-6.346,14.173-14.173,14.173c-176.882,0-353.764,0-530.646,0c-7.828,0-14.173-6.346-14.173-14.173
	c0-111.968,0-223.937,0-335.905c0-7.828,6.346-14.173,14.173-14.173c46.398,0,92.797,0,139.195,0c8.967,0,15.68-8.222,13.887-17.008
	C172.822,42.889,199.676,10,235.543,10c37.795,0,75.59,0,113.386,0c35.868,0,62.721,32.889,55.547,68.032
	c-1.793,8.786,4.92,17.008,13.887,17.008c46.398,0,92.797,0,139.196,0c7.828,0,14.173,6.346,14.173,14.173
	C571.732,221.181,571.732,333.15,571.732,445.118z"/>
<path fill="none" stroke="#C80000" stroke-linecap="round" stroke-linejoin="round" d="M449.134,399.764
	c1.879,0,3.402,1.523,3.402,3.402c0,1.878-1.523,3.4-3.402,3.4c-1.878,0-3.401-1.522-3.401-3.4
	C445.732,401.287,447.255,399.764,449.134,399.764z M406.047,339.67c0,1.878,1.523,3.4,3.401,3.4c1.879,0,3.402-1.522,3.402-3.4
	c0-1.879-1.523-3.402-3.402-3.402C407.57,336.268,406.047,337.791,406.047,339.67z M366.362,403.166c0,1.878,1.523,3.4,3.401,3.4
	c1.879,0,3.402-1.522,3.402-3.4c0-1.879-1.523-3.402-3.402-3.402C367.885,399.764,366.362,401.287,366.362,403.166z
	 M295.354,294.882c-1.566,0-2.835-1.269-2.835-2.835c0-1.889,0-3.779,0-5.669c0-1.565-1.269-2.835-2.834-2.835
	s-2.834,1.27-2.834,2.835c0,3.78,0,7.56,0,11.339c0,1.565,1.269,2.834,2.834,2.834c3.78,0,7.559,0,11.338,0
	c1.566,0,2.835-1.269,2.835-2.834s-1.269-2.835-2.835-2.835C299.134,294.882,297.244,294.882,295.354,294.882z M517.874,294.882
	c-1.565,0-2.834,1.27-2.834,2.835s1.269,2.834,2.834,2.834c3.779,0,7.559,0,11.338,0c1.566,0,2.835-1.269,2.835-2.834
	c0-3.779,0-7.559,0-11.339c0-1.565-1.269-2.835-2.835-2.835c-1.565,0-2.834,1.27-2.834,2.835c0,1.89,0,3.78,0,5.669
	c0,1.566-1.269,2.835-2.834,2.835C521.653,294.882,519.764,294.882,517.874,294.882z M523.543,140.394
	c1.565,0,2.834,1.269,2.834,2.834c0,1.89,0,3.779,0,5.669c0,1.565,1.269,2.834,2.834,2.834c1.566,0,2.835-1.269,2.835-2.834
	c0-3.78,0-7.559,0-11.339c0-1.565-1.269-2.834-2.835-2.834c-3.779,0-7.559,0-11.338,0c-1.565,0-2.834,1.269-2.834,2.834
	s1.269,2.835,2.834,2.835C519.764,140.394,521.653,140.394,523.543,140.394z M301.023,140.394c1.566,0,2.835-1.27,2.835-2.835
	s-1.269-2.834-2.835-2.834c-3.779,0-7.559,0-11.338,0c-1.565,0-2.834,1.269-2.834,2.834c0,3.78,0,7.559,0,11.339
	c0,1.565,1.269,2.834,2.834,2.834s2.834-1.269,2.834-2.834c0-1.89,0-3.78,0-5.669c0-1.565,1.269-2.834,2.835-2.834
	C297.244,140.394,299.134,140.394,301.023,140.394z M348.929,38.347c-16.063,0-32.126,0-48.189,0c0-4.697-3.808-8.504-8.504-8.504
	c-4.697,0-8.504,3.807-8.504,8.504c-16.063,0-32.126,0-48.189,0c-15.655,0-28.347,12.691-28.347,28.347
	c0,15.655,12.691,28.346,28.347,28.346c37.795,0,75.59,0,113.386,0c15.655,0,28.346-12.691,28.346-28.346
	C377.275,51.038,364.584,38.347,348.929,38.347z M254.252,146.772c2.662,0,4.819-2.158,4.819-4.819c0-2.662-2.157-4.819-4.819-4.819
	c-2.661,0-4.819,2.158-4.819,4.819C249.433,144.614,251.591,146.772,254.252,146.772z M254.252,253.07
	c2.662,0,4.819-2.156,4.819-4.818c0-2.661-2.157-4.818-4.819-4.818c-2.661,0-4.819,2.157-4.819,4.818
	C249.433,250.914,251.591,253.07,254.252,253.07z M67.166,248.252c0-2.661-2.158-4.818-4.819-4.818
	c-2.662,0-4.819,2.157-4.819,4.818c0,2.662,2.158,4.818,4.819,4.818C65.008,253.07,67.166,250.914,67.166,248.252z M67.166,141.953
	c0-2.662-2.158-4.819-4.819-4.819c-2.662,0-4.819,2.158-4.819,4.819c0,2.661,2.158,4.819,4.819,4.819
	C65.008,146.772,67.166,144.614,67.166,141.953z M26.914,114.032c2.661,0,4.819-2.158,4.819-4.819c0-2.662-2.158-4.819-4.819-4.819
	c-2.662,0-4.819,2.157-4.819,4.819C22.095,111.874,24.252,114.032,26.914,114.032z M22.095,445.118c0,2.661,2.157,4.819,4.819,4.819
	c2.661,0,4.819-2.158,4.819-4.819s-2.158-4.819-4.819-4.819C24.252,440.299,22.095,442.457,22.095,445.118z M557.559,440.299
	c-2.662,0-4.819,2.158-4.819,4.819s2.157,4.819,4.819,4.819s4.819-2.158,4.819-4.819S560.221,440.299,557.559,440.299z
	 M562.378,109.213c0-2.662-2.157-4.819-4.819-4.819s-4.819,2.157-4.819,4.819c0,2.661,2.157,4.819,4.819,4.819
	S562.378,111.874,562.378,109.213z"/>
</svg>
